<svg width="15" height="15" viewBox="0 0 15 15" fill="none" xmlns="http://www.w3.org/2000/svg">
<g clip-path="url(#clip0)">
<path d="M8.0853 11.6672L14.7604 4.99197C14.9149 4.83758 15 4.63148 15 4.41173C15 4.19197 14.9149 3.98588 14.7604 3.83149L14.2689 3.33991C13.9487 3.02003 13.4282 3.02003 13.1084 3.33991L7.50311 8.94523L1.89157 3.33369C1.73706 3.1793 1.53109 3.09405 1.31146 3.09405C1.09158 3.09405 0.885606 3.1793 0.730973 3.33369L0.239635 3.82527C0.0851249 3.97978 3.76698e-06 4.18575 3.75737e-06 4.40551C3.74777e-06 4.62526 0.0851249 4.83136 0.239635 4.98575L6.9208 11.6672C7.0758 11.8219 7.28275 11.9069 7.50275 11.9064C7.7236 11.9069 7.93042 11.8219 8.0853 11.6672Z" fill="black"/>
</g>
<defs>
<clipPath id="clip0">
<rect width="15" height="15" fill="white" transform="translate(15) rotate(90)"/>
</clipPath>
</defs>
</svg>
