<svg width="18" height="18" viewBox="0 0 18 18" fill="none" xmlns="http://www.w3.org/2000/svg">
<g clip-path="url(#clip0)">
<path d="M8.29764 3.99969L0.287559 12.0099C0.102145 12.1952 -8.06437e-08 12.4425 -6.91167e-08 12.7062C-5.75898e-08 12.9699 0.102145 13.2172 0.287559 13.4025L0.87731 13.9924C1.2616 14.3762 1.88618 14.3762 2.26988 13.9924L8.99627 7.26601L15.7301 13.9999C15.9155 14.1851 16.1627 14.2874 16.4263 14.2874C16.6901 14.2874 16.9373 14.1851 17.1228 13.9999L17.7124 13.41C17.8979 13.2245 18 12.9774 18 12.7137C18 12.45 17.8979 12.2027 17.7124 12.0174L9.69504 3.99969C9.50904 3.81399 9.26071 3.71199 8.99671 3.71257C8.73169 3.71199 8.48349 3.81399 8.29764 3.99969Z" fill="white"/>
</g>
<defs>
<clipPath id="clip0">
<rect width="18" height="18" fill="white" transform="translate(0 18) rotate(-90)"/>
</clipPath>
</defs>
</svg>
